REM DIRINDEX 1\5,1\2\6,1\2\7,1\3\8,1\3\9,1\4\10,1\4\11,1\4\12
REM DIRNAME folder01,folder02,folder03,folder04,folder05,folder06,folder07,folder08,folder09,folder10,folder11,folder12
TITLE ""
FILE "EJE_DB3000_5th_6C_43.mp3" MP3
  TRACK 01 AUDIO
    TITLE "0:"
    INDEX 01 00:00:00
  TRACK 02 AUDIO
    TITLE "10:cjc026_11820"
    INDEX 01 00:00:05
  TRACK 03 AUDIO
    TITLE "0:"
    INDEX 01 00:01:03
  TRACK 04 AUDIO
    TITLE "11:cjc026_11821"
    INDEX 01 00:01:30
  TRACK 05 AUDIO
    TITLE "0:"
    INDEX 01 00:02:38
  TRACK 06 AUDIO
    TITLE "12:cjc026_11822"
    INDEX 01 00:02:65
  TRACK 07 AUDIO
    TITLE "0:"
    INDEX 01 00:03:63
  TRACK 08 AUDIO
    TITLE "10:cjc026_11823"
    INDEX 01 00:04:13
  TRACK 09 AUDIO
    TITLE "0:"
    INDEX 01 00:05:01
  TRACK 10 AUDIO
    TITLE "11:cjc026_11824"
    INDEX 01 00:05:30
  TRACK 11 AUDIO
    TITLE "0:"
    INDEX 01 00:06:30
  TRACK 12 AUDIO
    TITLE "12:cjc026_11825"
    INDEX 01 00:06:55
  TRACK 13 AUDIO
    TITLE "0:"
    INDEX 01 00:07:43
  TRACK 14 AUDIO
    TITLE "10:cjc026_11826"
    INDEX 01 00:07:68
  TRACK 15 AUDIO
    TITLE "0:"
    INDEX 01 00:08:68
  TRACK 16 AUDIO
    TITLE "11:cjc026_11827"
    INDEX 01 00:09:18
  TRACK 17 AUDIO
    TITLE "0:"
    INDEX 01 00:09:71
  TRACK 18 AUDIO
    TITLE "12:cjc026_11828"
    INDEX 01 00:10:21
  TRACK 19 AUDIO
    TITLE "0:"
    INDEX 01 00:11:19
  TRACK 20 AUDIO
    TITLE "10:cjc026_11829"
    INDEX 01 00:11:44
  TRACK 21 AUDIO
    TITLE "0:"
    INDEX 01 00:12:32
  TRACK 22 AUDIO
    TITLE "11:cjc026_11830"
    INDEX 01 00:12:58
  TRACK 23 AUDIO
    TITLE "0:"
    INDEX 01 00:13:59
  TRACK 24 AUDIO
    TITLE "12:cjc026_11831"
    INDEX 01 00:14:11
  TRACK 25 AUDIO
    TITLE "0:"
    INDEX 01 00:14:72
  TRACK 26 AUDIO
    TITLE "10:cjc026_11832"
    INDEX 01 00:15:25
  TRACK 27 AUDIO
    TITLE "0:"
    INDEX 01 00:16:14
  TRACK 28 AUDIO
    TITLE "11:cjc026_11833"
    INDEX 01 00:16:40
  TRACK 29 AUDIO
    TITLE "0:"
    INDEX 01 00:17:31
  TRACK 30 AUDIO
    TITLE "12:cjc026_11834"
    INDEX 01 00:17:61
  TRACK 31 AUDIO
    TITLE "0:"
    INDEX 01 00:18:52
  TRACK 32 AUDIO
    TITLE "10:cjc026_11835"
    INDEX 01 00:19:01
  TRACK 33 AUDIO
    TITLE "0:"
    INDEX 01 00:19:67
  TRACK 34 AUDIO
    TITLE "11:cjc026_11836"
    INDEX 01 00:20:18
  TRACK 35 AUDIO
    TITLE "0:"
    INDEX 01 00:21:17
  TRACK 36 AUDIO
    TITLE "12:cjc026_11837"
    INDEX 01 00:21:43
  TRACK 37 AUDIO
    TITLE "0:"
    INDEX 01 00:22:34
  TRACK 38 AUDIO
    TITLE "10:cjc026_11838"
    INDEX 01 00:22:60
  TRACK 39 AUDIO
    TITLE "0:"
    INDEX 01 00:23:48
  TRACK 40 AUDIO
    TITLE "11:cjc026_11839"
    INDEX 01 00:23:73
  TRACK 41 AUDIO
    TITLE "0:"
    INDEX 01 00:24:71
  TRACK 42 AUDIO
    TITLE "12:cjc026_11840"
    INDEX 01 00:25:21
  TRACK 43 AUDIO
    TITLE "0:"
    INDEX 01 00:26:11
  TRACK 44 AUDIO
    TITLE "10:cjc026_11841"
    INDEX 01 00:26:36
  TRACK 45 AUDIO
    TITLE "0:"
    INDEX 01 00:27:24
  TRACK 46 AUDIO
    TITLE "11:cjc026_11842"
    INDEX 01 00:27:49
  TRACK 47 AUDIO
    TITLE "0:"
    INDEX 01 00:28:35
  TRACK 48 AUDIO
    TITLE "12:cjc026_11843"
    INDEX 01 00:28:60
  TRACK 49 AUDIO
    TITLE "0:"
    INDEX 01 00:29:50
  TRACK 50 AUDIO
    TITLE "10:cjc026_11844"
    INDEX 01 00:30:01
  TRACK 51 AUDIO
    TITLE "0:"
    INDEX 01 00:30:63
  TRACK 52 AUDIO
    TITLE "11:cjc026_11845"
    INDEX 01 00:31:14
  TRACK 53 AUDIO
    TITLE "0:"
    INDEX 01 00:32:23
  TRACK 54 AUDIO
    TITLE "12:cjc026_11846"
    INDEX 01 00:32:48
  TRACK 55 AUDIO
    TITLE "0:"
    INDEX 01 00:33:38
  TRACK 56 AUDIO
    TITLE "10:cjc026_11847"
    INDEX 01 00:33:62
  TRACK 57 AUDIO
    TITLE "0:"
    INDEX 01 00:34:53
  TRACK 58 AUDIO
    TITLE "11:cjc026_11848"
    INDEX 01 00:35:04
  TRACK 59 AUDIO
    TITLE "0:"
    INDEX 01 00:35:74
  TRACK 60 AUDIO
    TITLE "12:cjc026_11849"
    INDEX 01 00:36:27
  TRACK 61 AUDIO
    TITLE "0:"
    INDEX 01 00:37:14
  TRACK 62 AUDIO
    TITLE "10:cjc026_11850"
    INDEX 01 00:37:40
  TRACK 63 AUDIO
    TITLE "0:"
    INDEX 01 00:38:37
  TRACK 64 AUDIO
    TITLE "11:cjc026_11851"
    INDEX 01 00:38:63
  TRACK 65 AUDIO
    TITLE "0:"
    INDEX 01 00:39:52
  TRACK 66 AUDIO
    TITLE "12:cjc026_11852"
    INDEX 01 00:40:03
  TRACK 67 AUDIO
    TITLE "0:"
    INDEX 01 00:41:00
  TRACK 68 AUDIO
    TITLE "10:cjc026_11853"
    INDEX 01 00:41:26
  TRACK 69 AUDIO
    TITLE "0:"
    INDEX 01 00:42:35
  TRACK 70 AUDIO
    TITLE "11:cjc026_11854"
    INDEX 01 00:42:61
  TRACK 71 AUDIO
    TITLE "0:"
    INDEX 01 00:43:64
  TRACK 72 AUDIO
    TITLE "12:cjc026_11855"
    INDEX 01 00:44:11
  TRACK 73 AUDIO
    TITLE "0:"
    INDEX 01 00:45:20
  TRACK 74 AUDIO
    TITLE "10:cjc026_11856"
    INDEX 01 00:45:45
  TRACK 75 AUDIO
    TITLE "0:"
    INDEX 01 00:46:47
  TRACK 76 AUDIO
    TITLE "11:cjc026_11857"
    INDEX 01 00:46:72
  TRACK 77 AUDIO
    TITLE "0:"
    INDEX 01 00:48:14
  TRACK 78 AUDIO
    TITLE "12:cjc026_11858"
    INDEX 01 00:48:42
  TRACK 79 AUDIO
    TITLE "0:"
    INDEX 01 00:49:41
